<?xml version="1.0" encoding="UTF-8" standalone="no"?>
<!-- Created with Inkscape (http://www.inkscape.org/) -->

<svg
   xmlns:dc="http://purl.org/dc/elements/1.1/"
   xmlns:cc="http://creativecommons.org/ns#"
   xmlns:rdf="http://www.w3.org/1999/02/22-rdf-syntax-ns#"
   xmlns:svg="http://www.w3.org/2000/svg"
   xmlns="http://www.w3.org/2000/svg"
   xmlns:sodipodi="http://sodipodi.sourceforge.net/DTD/sodipodi-0.dtd"
   xmlns:inkscape="http://www.inkscape.org/namespaces/inkscape"
   width="210mm"
   height="297mm"
   viewBox="0 0 210 297"
   version="1.1"
   id="svg8"
   inkscape:version="0.92.3 (2405546, 2018-03-11)"
   sodipodi:docname="dibujo.svg">
  <defs
     id="defs2" />
  <sodipodi:namedview
     id="base"
     pagecolor="#ffffff"
     bordercolor="#666666"
     borderopacity="1.0"
     inkscape:pageopacity="0.0"
     inkscape:pageshadow="2"
     inkscape:zoom="0.35"
     inkscape:cx="44.285714"
     inkscape:cy="560"
     inkscape:document-units="mm"
     inkscape:current-layer="layer1"
     showgrid="false"
     inkscape:window-width="1600"
     inkscape:window-height="837"
     inkscape:window-x="-8"
     inkscape:window-y="-8"
     inkscape:window-maximized="1" />
  <metadata
     id="metadata5">
    <rdf:RDF>
      <cc:Work
         rdf:about="">
        <dc:format>image/svg+xml</dc:format>
        <dc:type
           rdf:resource="http://purl.org/dc/dcmitype/StillImage" />
        <dc:title></dc:title>
      </cc:Work>
    </rdf:RDF>
  </metadata>
  <g
     inkscape:label="Capa 1"
     inkscape:groupmode="layer"
     id="layer1">
    <rect
       id="rect3721"
       width="182.94048"
       height="3.0238097"
       x="4.5357146"
       y="66.434532"
       style="fill:#0000ff;stroke-width:0.26458332" />
    <rect
       id="rect3721-0"
       width="182.94048"
       height="3.0238097"
       x="3.0238128"
       y="46.704163"
       style="fill:#0000ff;stroke-width:0.26458332" />
    <path
       sodipodi:type="spiral"
       style="fill:none;fill-rule:evenodd;stroke:#000000;stroke-width:0.26458332"
       id="path3786"
       sodipodi:cx="175.38094"
       sodipodi:cy="33.928574"
       sodipodi:expansion="1"
       sodipodi:revolution="3"
       sodipodi:radius="16.589842"
       sodipodi:argument="-17.970581"
       sodipodi:t0="0"
       d="m 175.38094,33.928574 c 0.53063,0.640548 -0.60166,1.031304 -1.06464,0.881945 -1.25465,-0.404757 -1.3066,-2.065342 -0.69925,-3.011211 1.0864,-1.691938 3.49373,-1.676162 4.95778,-0.516569 2.14856,1.70175 2.05876,4.942258 0.33389,6.904366 -2.29899,2.615181 -6.39803,2.447031 -8.85095,0.151193 -3.08674,-2.889078 -2.83827,-7.857272 0.0315,-10.797521 3.47567,-3.561036 9.31848,-3.231229 12.7441,0.214182 4.03697,4.060298 3.62526,10.780914 -0.39688,14.690677 -4.64371,4.513976 -12.24416,4.02003 -16.63725,-0.579558 -4.99171,-5.226344 -4.41529,-13.707989 0.76225,-18.583832 5.80842,-5.46996 15.17223,-4.810927 20.53041,0.944934 5.94859,6.390095 5.20683,16.636789 -1.12763,22.476987" />
    <path
       sodipodi:type="spiral"
       style="fill:none;fill-rule:evenodd;stroke:#000000;stroke-width:0.26458332"
       id="path3786-1"
       sodipodi:cx="18.280077"
       sodipodi:cy="32.039539"
       sodipodi:expansion="1"
       sodipodi:revolution="3"
       sodipodi:radius="16.589842"
       sodipodi:argument="-17.970581"
       sodipodi:t0="0"
       d="m 18.280077,32.039539 c 0.530632,0.640548 -0.601651,1.031305 -1.064633,0.881945 -1.254652,-0.404756 -1.306605,-2.065341 -0.699257,-3.01121 1.086404,-1.691938 3.493735,-1.676163 4.957788,-0.516569 2.148558,1.701749 2.058757,4.942258 0.333882,6.904365 -2.298988,2.615181 -6.398027,2.447032 -8.850944,0.151194 -3.0867457,-2.889078 -2.83827,-7.857272 0.03149,-10.797521 3.475669,-3.561037 9.31848,-3.231229 12.744099,0.214182 4.036973,4.060298 3.625268,10.780913 -0.396871,14.690677 C 20.691918,45.070578 13.091472,44.576631 8.6983819,39.977044 3.7066733,34.7507 4.2830869,26.269055 9.4606279,21.393211 15.269046,15.923252 24.632859,16.582285 29.991038,22.338145 c 5.948593,6.390096 5.206831,16.63679 -1.127622,22.476988" />
    <text
       xml:space="preserve"
       style="font-style:normal;font-weight:normal;font-size:10.58333302px;line-height:1.25;font-family:sans-serif;letter-spacing:0px;word-spacing:0px;fill:#000000;fill-opacity:1;stroke:none;stroke-width:0.26458332"
       x="37.934845"
       y="62.957989"
       id="text3824"><tspan
         sodipodi:role="line"
         id="tspan3822"
         x="37.934845"
         y="62.957989"
         style="stroke-width:0.26458332">JUAN SEBASTIAN R</tspan></text>
    <flowRoot
       xml:space="preserve"
       id="flowRoot3826"
       style="fill:black;fill-opacity:1;stroke:none;font-family:sans-serif;font-style:normal;font-weight:normal;font-size:40px;line-height:1.25;letter-spacing:0px;word-spacing:0px"><flowRegion
         id="flowRegion3828"><rect
           id="rect3830"
           width="54.285713"
           height="77.14286"
           x="222.85715"
           y="139.66254" /></flowRegion><flowPara
         id="flowPara3832"></flowPara></flowRoot>  </g>
</svg>
